<?xml version="1.0" encoding="utf-8"?>
<!-- Generator: Adobe Illustrator 19.2.0, SVG Export Plug-In . SVG Version: 6.00 Build 0)  -->
<svg version="1.1" id="Layer_1" xmlns="http://www.w3.org/2000/svg" xmlns:xlink="http://www.w3.org/1999/xlink" x="0px" y="0px"
	 width="16px" height="16px" viewBox="0 0 16 16" style="enable-background:new 0 0 16 16;" xml:space="preserve">
<style type="text/css">
	.st0{opacity:0;fill:#FFFFFF;}
	.st1{fill:#13759B;}
</style>
<rect class="st0" width="16" height="16"/>
<g>
	<path class="st1" d="M15.9,7.8l-2.2-2.4c-0.1-0.1-0.2-0.2-0.4-0.2c-0.1,0-0.3,0.1-0.4,0.2l-2.2,2.4c-0.2,0.2-0.2,0.5,0,0.7
		c0.1,0.1,0.2,0.1,0.3,0.1c0.1,0,0.3-0.1,0.4-0.2L12.8,7v0.9h0c0,2.6-2.2,4.7-4.8,4.7c-1.3,0-2.4-0.5-3.3-1.3L4,12.1
		c1,1,2.4,1.6,4,1.6c3.2,0,5.8-2.6,5.8-5.8h0V7.1l1.3,1.4c0.2,0.2,0.5,0.2,0.7,0C16,8.3,16.1,8,15.9,7.8z"/>
	<path class="st1" d="M5.3,7.5c-0.2-0.2-0.5-0.2-0.7,0L3.2,9V8.1h0c0-2.6,2.2-4.7,4.8-4.7c1.3,0,2.4,0.5,3.3,1.3L12,3.9
		c-1-1-2.4-1.6-4-1.6c-3.2,0-5.8,2.6-5.8,5.8h0v0.8L0.9,7.5c-0.2-0.2-0.5-0.2-0.7,0C0,7.7-0.1,8,0.1,8.2l2.2,2.4
		c0.1,0.1,0.2,0.2,0.4,0.2c0.2,0,0.3-0.1,0.4-0.2l2.2-2.4C5.5,8,5.5,7.7,5.3,7.5z"/>
</g>
</svg>
