<?xml version="1.0" encoding="utf-8"?>
<!-- Generator: Adobe Illustrator 19.2.0, SVG Export Plug-In . SVG Version: 6.00 Build 0)  -->
<svg version="1.1" id="Layer_1" xmlns="http://www.w3.org/2000/svg" xmlns:xlink="http://www.w3.org/1999/xlink" x="0px" y="0px"
	 width="16px" height="16px" viewBox="0 0 16 16" style="enable-background:new 0 0 16 16;" xml:space="preserve">
<style type="text/css">
	.st0{opacity:0;fill:#FFFFFF;}
	.st1{fill:#13AA37;}
	.st2{fill:#FFFFFF;}
</style>
<rect class="st0" width="16" height="16"/>
<path id="check-mark-11" class="st2" d="M3.8,6.5l0.6-0.6c1,0.3,2.7,0.9,4.3,1.8c1.6-2.1,4.9-4.8,6.9-6L16,2.3l-7.1,9.7L3.8,6.5z"/>
<path class="st2" d="M8,2.5c3.1,0,5.5,2.5,5.5,5.5s-2.5,5.5-5.5,5.5S2.5,11.1,2.5,8S4.9,2.5,8,2.5 M8,1C4.1,1,1,4.1,1,8s3.1,7,7,7
	s7-3.1,7-7S11.9,1,8,1L8,1z"/>
</svg>
