<?xml version="1.0" encoding="utf-8"?>
<!-- Generator: Adobe Illustrator 18.0.0, SVG Export Plug-In . SVG Version: 6.00 Build 0)  -->
<!DOCTYPE svg PUBLIC "-//W3C//DTD SVG 1.1//EN" "http://www.w3.org/Graphics/SVG/1.1/DTD/svg11.dtd">
<svg version="1.1" id="Layer_1" xmlns="http://www.w3.org/2000/svg" xmlns:xlink="http://www.w3.org/1999/xlink" width="176" height="31" x="0px" y="0px"
	 viewBox="0 0 176 31" enable-background="new 0 0 176 31" xml:space="preserve">
<g>
	<g>
		<path fill="#FFFFFF" d="M127.5,24.8h-3.2c-1.4,0-2-0.4-2.5-1.6l-3.3-9h-0.1l-2.6,10.6h-5.2L115,6.9h4.1c1.4,0,2,0.4,2.4,1.5l2.7,8
			h0.1l2.3-9.5h5.2L127.5,24.8z"/>
		<path fill="#FFFFFF" d="M138.2,18.5l0.9-3.7h8.9l-0.4,1.7c-1.1,4.5-2.4,6.1-3.2,6.9c-1.2,1.2-2.4,1.5-4.3,1.5h-4.6
			c-2.3,0-3.2-0.4-3.7-0.9c-1.2-1.2-1.7-3.6-0.5-8.6c1.1-4.5,2.4-6.1,3.2-6.9c1.2-1.2,2.4-1.5,4.3-1.5h4.8c2.3,0,3.3,0.4,3.8,0.9
			c0.9,0.9,1.3,2.5,0.9,5.2h-5.3c0.3-1.3,0.1-1.7,0-1.8c-0.2-0.2-0.4-0.2-1.4-0.2h-2c-0.8,0-1.1,0.1-1.3,0.3
			c-0.2,0.2-0.6,0.7-1.6,4.6c-0.9,3.8-0.7,4.4-0.5,4.6c0.2,0.2,0.4,0.2,1.4,0.2h2c0.8,0,1.1-0.1,1.3-0.3c0.2-0.2,0.4-0.5,0.9-2
			H138.2z"/>
		<path fill="#FFFFFF" d="M147,24.8l4.5-17.9h5.5l-4.5,17.9H147z"/>
		<path fill="#FFFFFF" d="M171.5,24.8h-3.2c-1.4,0-2-0.4-2.5-1.6l-3.3-9h-0.1l-2.6,10.6h-5.2l4.5-17.9h4.1c1.4,0,2,0.4,2.4,1.5
			l2.7,8h0.1l2.3-9.5h5.2L171.5,24.8z"/>
	</g>
	<g>
		<path fill="#FFFFFF" d="M5.6,18.8c-0.4,1.3-0.4,1.6-0.2,1.8c0.2,0.2,0.5,0.2,1.3,0.2h2.5c0.6,0,0.9,0,1.1-0.2
			c0.1-0.1,0.3-0.4,0.5-1c0.2-0.6,0.2-0.9,0-1.1c-0.1-0.1-0.2-0.1-0.5-0.2l-5.3-1.1c-1.2-0.3-1.7-0.5-2.2-1c-0.8-0.8-1-2.1-0.4-4.3
			c0.5-2.1,1.3-3.3,2-3.9C5,7.2,6.1,6.9,7.5,6.9H14c1.6,0,2.5,0.3,3,0.8c0.8,0.8,0.8,2.2,0.2,5h-5c0.2-1.1,0.2-1.4,0.1-1.6
			c-0.2-0.2-0.5-0.2-1.3-0.2H8.9c-0.6,0-0.9,0-1.1,0.2c-0.1,0.1-0.3,0.4-0.4,1c-0.1,0.5-0.2,0.8,0,1c0.1,0.1,0.2,0.2,0.5,0.2
			l5.2,1.1c1.2,0.3,1.7,0.5,2.2,1c0.8,0.8,1,2.2,0.5,4.4c-0.5,2.2-1.4,3.3-2,4c-0.8,0.8-1.9,1.2-3.3,1.2h-7c-1.5,0-2.4-0.3-2.9-0.8
			c-0.8-0.8-0.9-2.5,0.1-5.2H5.6z"/>
		<path fill="#FFFFFF" d="M32.1,18c-1.1,1.1-2.5,1.3-4.2,1.3h-5.1l-1.4,5.6h-5.5l4.5-17.9h9.1c2.3,0,3.5,0.4,4.3,1.1
			c1,1.1,1.1,2.7,0.6,5.3C33.8,15.9,32.8,17.2,32.1,18z M24.9,10.9l-1.1,4.3h2.6c1,0,1.4-0.1,1.6-0.3c0.3-0.3,0.5-0.6,0.8-1.9
			c0.3-1.3,0.2-1.6,0-1.8c-0.2-0.2-0.4-0.2-1.6-0.2H24.9z"/>
		<path fill="#FFFFFF" d="M38.5,24.8c-2.3,0-3.2-0.4-3.7-0.9c-1.2-1.2-1.7-3.6-0.5-8.6c1.1-4.5,2.4-6.1,3.2-6.9
			c1.2-1.2,2.4-1.5,4.3-1.5h4.7c2.3,0,3.2,0.4,3.7,0.9c1.2,1.2,1.7,3.6,0.5,8.6c-1.1,4.5-2.4,6.1-3.2,6.9c-1.2,1.2-2.4,1.5-4.3,1.5
			H38.5z M39.3,20.5c0.2,0.2,0.4,0.2,1.3,0.2h1.7c0.8,0,1.1-0.1,1.3-0.3c0.2-0.2,0.7-0.6,1.6-4.6c0.9-3.8,0.7-4.4,0.5-4.6
			c-0.2-0.2-0.4-0.2-1.3-0.2h-1.7c-0.8,0-1.1,0.1-1.3,0.3c-0.2,0.2-0.7,0.6-1.6,4.6C38.8,19.6,39.1,20.3,39.3,20.5z"/>
		<path fill="#FFFFFF" d="M66.3,24.8h-5.6c0.1-1.1,0.3-2.3,0.6-3.6c0.3-1.5,0.2-1.9-0.1-2.2c-0.2-0.2-0.6-0.3-1.7-0.3h-2.2l-1.5,6.2
			h-5.5l4.5-17.9h10.5c1.9,0,3.1,0.3,3.8,1.2c0.7,0.9,0.8,2.3,0.2,4.5c-0.7,2.9-2,3.8-4,4.2v0.1c1.8,0.5,2.5,1.3,1.9,4
			C66.7,22.4,66.5,23.9,66.3,24.8z M59.2,11l-0.9,3.8h2.8c1,0,1.4-0.1,1.6-0.3c0.2-0.2,0.5-0.6,0.7-1.5c0.2-1,0.2-1.5-0.1-1.7
			C63.1,11,62.8,11,61.7,11H59.2z"/>
		<path fill="#FFFFFF" d="M80.8,11.1l-3.4,13.8h-5.5l3.4-13.8h-5.2l1.1-4.2h16l-1,4.2H80.8z"/>
	</g>
	<g>
		<g>
			<path fill="#FFFFFF" d="M90.6,12.2c0.4,0,0.9-0.1,1.3-0.3l1.4,1.1c0.3-0.4,0.6-0.7,1-1l-1-1.4c0.2-0.3,0.3-0.7,0.4-1
				c0.3-1.5-0.6-2.7-2-2.7c-1.4,0-2.9,1.2-3.2,2.6C88.3,11,89.1,12.2,90.6,12.2z M101.5,12.4l5-3.5c0.6,0.4,1.3,0.6,2,0.6
				c2.5,0,5.1-2.1,5.7-4.6c0.6-2.6-1-4.7-3.5-4.7c-2.5,0-5.1,2.1-5.7,4.6c-0.2,0.9-0.1,1.8,0.2,2.5l-4.3,4.4
				C101.2,11.8,101.4,12.1,101.5,12.4z M92.3,18.3l-2.6,1.5c-0.3-0.2-0.7-0.3-1.1-0.3c-1.4,0-2.9,1.2-3.2,2.6
				c-0.3,1.5,0.6,2.7,2,2.7c1.4,0,2.9-1.2,3.2-2.6c0.1-0.4,0.1-0.9,0-1.2l2.2-1.8C92.5,18.9,92.4,18.6,92.3,18.3z M104.9,21.6
				c-0.5,0-1,0.1-1.5,0.2l-3.3-3c-0.4,0.4-0.9,0.8-1.5,1.1l1.7,4.1c-0.5,0.7-0.9,1.4-1.1,2.3c-0.6,2.6,1,4.7,3.5,4.8
				c2.5,0,5.1-2.1,5.7-4.7C109,23.8,107.4,21.6,104.9,21.6z"/>
			<path fill="#FFFFFF" d="M100.3,15.6c-0.4,1.8-2.2,3.3-4,3.3c-1.8,0-2.9-1.5-2.5-3.4c0.4-1.8,2.2-3.3,4-3.3
				C99.6,12.3,100.7,13.8,100.3,15.6z"/>
		</g>
	</g>
</g>
</svg>
