<?xml version="1.0" encoding="utf-8"?>
<!-- Generator: Adobe Illustrator 19.2.0, SVG Export Plug-In . SVG Version: 6.00 Build 0)  -->
<svg version="1.1" id="Layer_1" xmlns="http://www.w3.org/2000/svg" xmlns:xlink="http://www.w3.org/1999/xlink" x="0px" y="0px"
	 width="80px" height="80px" viewBox="0 0 80 80" style="enable-background:new 0 0 80 80;" xml:space="preserve">
<style type="text/css">
	.st0{opacity:0;fill:#FFFFFF;}
	.st1{fill:#23282B;}
	.st2{fill:#F2F3F4;}
</style>
<rect class="st0" width="80" height="80"/>
<path class="st2" d="M62.5,77.1H17.4c-8.2,0-14.9-6.7-14.9-14.9V17c0-8.2,6.7-14.9,14.9-14.9h45.2c8.2,0,14.9,6.7,14.9,14.9v45.2
	C77.4,70.4,70.7,77.1,62.5,77.1z M17.4,7.5c-5.2,0-9.5,4.3-9.5,9.5v45.2c0,5.2,4.3,9.5,9.5,9.5h45.2c5.2,0,9.5-4.3,9.5-9.5V17
	c0-5.2-4.3-9.5-9.5-9.5H17.4z M26.4,34.2c0.7,0,1.4-0.2,2.1-0.5l2.3,1.8c0.5-0.6,1-1.2,1.6-1.7l-1.6-2.3c0.3-0.5,0.6-1.1,0.7-1.7
	c0.5-2.4-0.9-4.3-3.2-4.4c-2.3,0-4.7,1.9-5.2,4.3C22.6,32.2,24.1,34.2,26.4,34.2z M44.3,34.5l8.2-5.8c0.9,0.6,2.1,0.9,3.3,1
	c4.2,0,8.3-3.4,9.3-7.6c1-4.2-1.6-7.7-5.8-7.8c-4.2,0-8.3,3.4-9.3,7.6c-0.3,1.5-0.2,2.9,0.3,4.2l-7.1,7.2C43.7,33.6,44,34,44.3,34.5
	z M29.1,44.2l-4.2,2.5c-0.5-0.3-1.1-0.5-1.8-0.5c-2.3,0-4.7,1.9-5.2,4.3c-0.5,2.4,0.9,4.3,3.2,4.4c2.3,0,4.7-1.9,5.2-4.3
	c0.2-0.7,0.1-1.4,0-2l3.5-3C29.6,45.2,29.3,44.7,29.1,44.2z M49.8,49.6c-0.8,0-1.6,0.1-2.4,0.4L42,45c-0.7,0.7-1.5,1.3-2.4,1.8
	l2.7,6.7c-0.9,1.1-1.5,2.4-1.8,3.7c-1,4.2,1.6,7.7,5.8,7.8c4.1,0,8.3-3.4,9.3-7.6C56.5,53.1,53.9,49.6,49.8,49.6z M42.2,39.9
	c-0.7,3-3.6,5.4-6.5,5.4c-2.9,0-4.8-2.5-4.1-5.5c0.7-3,3.6-5.4,6.6-5.4C41.1,34.4,42.9,36.9,42.2,39.9z"/>
</svg>
