<?xml version="1.0" encoding="utf-8"?>
<!-- Generator: Adobe Illustrator 19.2.0, SVG Export Plug-In . SVG Version: 6.00 Build 0)  -->
<svg version="1.1" id="Layer_1" xmlns="http://www.w3.org/2000/svg" xmlns:xlink="http://www.w3.org/1999/xlink" x="0px" y="0px"
	 width="140px" height="140px" viewBox="0 0 140 140" style="enable-background:new 0 0 140 140;" xml:space="preserve">
<style type="text/css">
	.st0{opacity:0;fill:#FFFFFF;}
	.st1{fill:#23282B;}
	.st2{fill:#F2F3F4;}
</style>
<rect y="0" class="st0" width="140" height="140"/>
<path class="st2" d="M92.5,107.1H47.4c-8.2,0-14.9-6.7-14.9-14.9V47c0-8.2,6.7-14.9,14.9-14.9h45.2c8.2,0,14.9,6.7,14.9,14.9v45.2
	C107.4,100.4,100.7,107.1,92.5,107.1z M47.4,37.5c-5.2,0-9.5,4.3-9.5,9.5v45.2c0,5.2,4.3,9.5,9.5,9.5h45.2c5.2,0,9.5-4.3,9.5-9.5V47
	c0-5.2-4.3-9.5-9.5-9.5H47.4z M56.4,64.2c0.7,0,1.4-0.2,2.1-0.5l2.3,1.8c0.5-0.6,1-1.2,1.6-1.7l-1.6-2.3c0.3-0.5,0.6-1.1,0.7-1.7
	c0.5-2.4-0.9-4.3-3.2-4.4c-2.3,0-4.7,1.9-5.2,4.3C52.6,62.2,54.1,64.2,56.4,64.2z M74.3,64.5l8.2-5.8c0.9,0.6,2.1,0.9,3.3,1
	c4.2,0,8.3-3.4,9.3-7.6c1-4.2-1.6-7.7-5.8-7.8c-4.2,0-8.3,3.4-9.3,7.6c-0.3,1.5-0.2,2.9,0.3,4.2l-7.1,7.2C73.7,63.6,74,64,74.3,64.5
	z M59.1,74.2l-4.2,2.5c-0.5-0.3-1.1-0.5-1.8-0.5c-2.3,0-4.7,1.9-5.2,4.3c-0.5,2.4,0.9,4.3,3.2,4.4c2.3,0,4.7-1.9,5.2-4.3
	c0.2-0.7,0.1-1.4,0-2l3.5-3C59.6,75.2,59.3,74.7,59.1,74.2z M79.8,79.6c-0.8,0-1.6,0.1-2.4,0.4L72,75c-0.7,0.7-1.5,1.3-2.4,1.8
	l2.7,6.7c-0.9,1.1-1.5,2.4-1.8,3.7c-1,4.2,1.6,7.7,5.8,7.8c4.1,0,8.3-3.4,9.3-7.6C86.5,83.1,83.9,79.6,79.8,79.6z M72.2,69.9
	c-0.7,3-3.6,5.4-6.5,5.4c-2.9,0-4.8-2.5-4.1-5.5c0.7-3,3.6-5.4,6.6-5.4C71.1,64.4,72.9,66.9,72.2,69.9z"/>
</svg>
