<svg xmlns="http://www.w3.org/2000/svg" width="25" height="25" viewBox="0 0 25 25">
	<path class="social-fill" d="M0,0V25H25V0H0ZM18.46,9.44c0,0.13,0,.26,0,0.4A8.75,8.75,0,0,1,5,17.21a6.22,6.22,0,0,0,4.56-1.28A3.08,3.08,0,0,1,6.68,13.8a3.05,3.05,0,0,0,.58.05,3,3,0,0,0,.81-0.11,3.08,3.08,0,0,1-2.47-3v0A3.08,3.08,0,0,0,7,11.08,3.08,3.08,0,0,1,6,7a8.74,8.74,0,0,0,6.34,3.22,3.08,3.08,0,0,1,5.24-2.81,6.15,6.15,0,0,0,2-.75,3.08,3.08,0,0,1-1.35,1.7A6.16,6.16,0,0,0,20,7.85,6.24,6.24,0,0,1,18.46,9.44Z"/>
</svg>